<svg width="27" height="27" viewBox="0 0 27 27" fill="none" xmlns="http://www.w3.org/2000/svg">
<path d="M0 5C0 2.23858 2.23858 0 5 0H22C24.7614 0 27 2.23858 27 5V22C27 24.7614 24.7614 27 22 27H5C2.23858 27 0 24.7614 0 22V5Z" fill="#1C1C1E"/>
<path d="M19.6105 8.66L20.0705 18.86L21.7905 19.56L21.6705 20H16.9305L16.8105 19.56L17.7105 19.12C18.1371 18.92 18.3438 18.66 18.3305 18.34L17.8905 8.54L14.0505 19.6L12.8105 20L12.4305 19.8L8.69047 8.56L8.13047 18.86L9.65047 19.56L9.53047 20H5.33047L5.21047 19.56L6.31047 19.1C6.6438 18.9533 6.83714 18.8067 6.89047 18.66C6.9038 18.5933 6.91714 18.4867 6.93047 18.34L7.43047 8.14L5.71047 7.44L5.83047 7H9.87047L10.1305 7.2L13.5105 17.64L17.0505 7H21.2105L21.3305 7.44L20.2305 7.9C19.8038 8.07333 19.5971 8.32667 19.6105 8.66Z" fill="white"/>
</svg>
